<?xml version="1.0" encoding="utf-8"?>
<!-- Generator: Adobe Illustrator 24.3.0, SVG Export Plug-In . SVG Version: 6.00 Build 0)  -->
<svg version="1.1" id="Layer_1" xmlns="http://www.w3.org/2000/svg" xmlns:xlink="http://www.w3.org/1999/xlink" x="0px" y="0px"
	 viewBox="0 0 296 158.45" style="enable-background:new 0 0 296 158.45;" xml:space="preserve">
<style type="text/css">
	.st0{fill:#010101;}
	.st1{fill:#191B1C;}
	.st2{fill:#FFFFFF;}
	.st3{fill:#F6280A;}
	.st4{fill:#0BA4E1;}
	.st5{fill:#1284CF;}
	.st6{fill:#0A2955;}
	.st7{fill:#0E5EA1;}
	.st8{fill:#233851;}
	.st9{fill:#0A8BDB;}
	.st10{fill:#16BAF6;}
	.st11{fill:#052859;}
	.st12{fill:#0A599C;}
	.st13{fill:#0C82CF;}
	.st14{fill:none;}
	.st15{fill:none;stroke:#0A8BDB;stroke-width:0.25;stroke-miterlimit:10;}
	.st16{fill:#43FDFF;}
	.st17{fill:none;stroke:#010101;stroke-miterlimit:10;}
	.st18{fill:#FF7D0C;}
	.st19{fill:#048CF5;}
	.st20{fill:#00A6F3;}
	.st21{fill:none;stroke:#F6280A;stroke-width:0.5;stroke-linecap:round;stroke-miterlimit:10;}
	.st22{fill:#000E2D;}
	.st23{fill:#191B22;}
	.st24{fill-rule:evenodd;clip-rule:evenodd;fill:url(#SVGID_1_);}
	.st25{fill-rule:evenodd;clip-rule:evenodd;fill:url(#SVGID_2_);}
	.st26{fill-rule:evenodd;clip-rule:evenodd;fill:url(#SVGID_3_);}
	.st27{fill-rule:evenodd;clip-rule:evenodd;fill:url(#SVGID_4_);}
	.st28{fill-rule:evenodd;clip-rule:evenodd;fill:url(#SVGID_5_);}
	.st29{fill-rule:evenodd;clip-rule:evenodd;fill:url(#SVGID_6_);}
	.st30{fill:none;stroke:#191B22;stroke-miterlimit:10;}
	.st31{fill:#19191B;}
	.st32{fill:url(#SVGID_7_);}
</style>
<g>
	<g>
		<path class="st9" d="M98.98,83.66c5.3,0,9.6-4.3,9.6-9.6s-4.3-9.6-9.6-9.6l-0.34,4.43c2.97,0,5.38,2.41,5.38,5.38
			s-2.41,5.38-5.38,5.38L98.98,83.66z"/>
		<polygon class="st9" points="98.64,79.66 57.92,79.66 59.62,83.65 98.97,83.65 		"/>
		<polygon class="st9" points="57.36,83.65 55.43,79.66 35.01,79.66 35.22,83.65 		"/>
		<path class="st10" d="M93.13,64.65c0,0-1.78-4.05-7.03-3.87c-0.74,0.03-1.45,0.25-2.11,0.58c-1.11,0.55-2.83,1.59-4.29,3.29H93.13
			z"/>
		<path class="st9" d="M35.01,79.66c0,0-7.19,0.41-7.73-5.97c0,0-0.75-12.68,20.68-12.68c0,0,1.29-17.56,14.78-16.75
			c0,0,12.68,0.14,14.45,24.48h21.45l0.34-4.27H81.67c0,0-2.51-23.06-19.06-24.69c0,0-13.9-1.83-18.11,16.62
			c0,0-20.35,1.22-21.63,17.36c0,0,1.04,9.89,12.35,9.89L35.01,79.66z"/>
	</g>
	<g>
		<g>
			<path class="st11" d="M23.2,108.45V84.74h8.33c4.69,0,8.21,0.96,10.55,2.89c2.34,1.92,3.51,4.82,3.51,8.67
				c0,3.67-1.29,6.62-3.88,8.83s-6.03,3.32-10.33,3.32H23.2z M27.69,88.14v16.92h3.47c3.04,0,5.42-0.77,7.13-2.3
				c1.71-1.53,2.57-3.67,2.57-6.4c0-2.66-0.82-4.69-2.45-6.1c-1.63-1.41-4.02-2.12-7.18-2.12H27.69z"/>
			<path class="st11" d="M66.71,100.79H53.48c0.09,1.64,0.62,2.89,1.6,3.75c0.98,0.86,2.36,1.29,4.15,1.29
				c0.7,0,1.52-0.13,2.45-0.39c0.93-0.26,1.86-0.68,2.78-1.26l1.96,2.46c-1.22,0.77-2.45,1.33-3.69,1.69
				c-1.24,0.35-2.61,0.53-4.1,0.53c-3.01,0-5.35-0.78-7.02-2.33c-1.67-1.55-2.52-3.73-2.53-6.53c0-2.78,0.87-5.02,2.6-6.74
				c1.74-1.71,3.96-2.57,6.67-2.57c2.61,0,4.66,0.73,6.14,2.19c1.48,1.46,2.23,3.53,2.23,6.21V100.79z M62.5,98.08
				c-0.01-1.49-0.38-2.61-1.11-3.37c-0.73-0.76-1.76-1.14-3.09-1.14c-1.26,0-2.32,0.41-3.2,1.22c-0.87,0.82-1.41,1.91-1.61,3.29
				H62.5z"/>
			<path class="st11" d="M87.92,91.1l-7.5,17.35h-4.75L68.54,91.1h4.75l4.23,11.74c0.17,0.53,0.32,1.02,0.43,1.48
				c0.12,0.46,0.19,0.87,0.23,1.25h0.07c0.05-0.43,0.13-0.86,0.24-1.29c0.11-0.43,0.25-0.88,0.42-1.34L83.3,91.1H87.92z"/>
			<path class="st11" d="M106.01,108.45h-4.25v-2.63h-0.07c-0.65,1-1.47,1.76-2.45,2.27c-0.98,0.51-2.1,0.77-3.37,0.77
				c-1.79,0-3.25-0.46-4.4-1.4c-1.15-0.93-1.72-2.2-1.72-3.79c0-1.57,0.58-2.84,1.73-3.82c1.15-0.98,2.87-1.62,5.16-1.92l5.15-0.61
				v-0.36c0-1.17-0.34-2.02-1.03-2.56c-0.68-0.54-1.61-0.81-2.78-0.81c-0.92,0-1.86,0.15-2.82,0.46c-0.95,0.3-1.88,0.76-2.78,1.36
				l-1.88-2.35c1.17-0.8,2.39-1.4,3.67-1.79c1.27-0.39,2.66-0.58,4.17-0.58c2.57,0,4.5,0.57,5.76,1.72s1.9,2.87,1.9,5.18V108.45z
				 M101.79,101.37v-1.46l-4.18,0.5c-1.23,0.15-2.15,0.45-2.76,0.89c-0.61,0.44-0.91,1.09-0.91,1.93c0,0.83,0.29,1.48,0.86,1.95
				c0.57,0.47,1.32,0.71,2.24,0.71c1.42,0,2.56-0.42,3.44-1.27C101.36,103.78,101.79,102.7,101.79,101.37z"/>
			<path class="st11" d="M128.9,108.45h-4.4v-9.79c0-1.61-0.33-2.82-0.99-3.63c-0.66-0.81-1.64-1.21-2.93-1.21
				c-1.32,0-2.41,0.45-3.27,1.34c-0.86,0.89-1.29,2.02-1.29,3.39v9.91h-4.4V91.1h4.4v2.81h0.07c0.71-1.07,1.6-1.87,2.65-2.41
				c1.05-0.54,2.27-0.81,3.65-0.81c2.13,0,3.75,0.6,4.85,1.81c1.1,1.21,1.65,2.99,1.65,5.33V108.45z"/>
			<path class="st12" d="M147.63,105.76c-0.69,1.04-1.56,1.81-2.62,2.33c-1.06,0.52-2.3,0.78-3.73,0.78c-2.43,0-4.38-0.77-5.85-2.32
				c-1.47-1.54-2.21-3.67-2.21-6.37c0-2.88,0.81-5.18,2.43-6.91s3.77-2.59,6.44-2.59c1.29,0,2.4,0.22,3.33,0.65s1.66,1.09,2.22,1.98
				h0.07v-9.94h4.42v25.07h-4.42v-2.7H147.63z M137.71,100.02c0,1.8,0.45,3.2,1.35,4.21c0.9,1.01,2.11,1.51,3.64,1.51
				c1.51,0,2.74-0.5,3.67-1.5c0.93-1,1.4-2.3,1.4-3.89v-2c0-1.29-0.45-2.37-1.34-3.23c-0.89-0.87-2.04-1.3-3.45-1.3
				c-1.64,0-2.93,0.55-3.86,1.65S137.71,98.09,137.71,100.02z"/>
			<path class="st13" d="M177.84,107.23c-1.34,0.57-2.65,0.99-3.92,1.24s-2.65,0.38-4.14,0.38c-4.06,0-7.25-1.06-9.54-3.17
				c-2.3-2.12-3.45-5.02-3.45-8.72c0-3.74,1.27-6.77,3.81-9.11c2.54-2.34,5.87-3.51,9.97-3.51c1.34,0,2.57,0.1,3.69,0.3
				c1.12,0.2,2.26,0.52,3.42,0.96l-1.48,3.29c-0.92-0.35-1.83-0.61-2.71-0.77c-0.88-0.16-1.83-0.24-2.85-0.24
				c-2.65,0-4.83,0.79-6.54,2.37c-1.71,1.58-2.57,3.73-2.57,6.44c0,2.67,0.79,4.77,2.36,6.31s3.69,2.31,6.36,2.31
				c0.89,0,1.82-0.1,2.81-0.31c0.98-0.21,2-0.55,3.03-1.03L177.84,107.23z"/>
			<path class="st13" d="M182.05,108.45V83.38h4.4v25.07H182.05z"/>
			<path class="st13" d="M201.02,108.86c-3.04,0-5.45-0.81-7.22-2.44c-1.77-1.63-2.66-3.8-2.66-6.52c0.01-2.89,0.93-5.15,2.76-6.77
				s4.32-2.44,7.47-2.44c3.03-0.01,5.4,0.79,7.12,2.4c1.72,1.61,2.58,3.79,2.58,6.53c0,2.82-0.91,5.07-2.72,6.74
				C206.55,108.03,204.1,108.86,201.02,108.86z M201.23,105.74c1.75,0,3.08-0.52,3.99-1.55c0.91-1.03,1.37-2.52,1.37-4.47
				c0-1.92-0.46-3.38-1.38-4.39s-2.25-1.51-4-1.51c-1.74,0-3.1,0.53-4.09,1.6c-0.99,1.06-1.49,2.54-1.49,4.42
				c0,1.88,0.49,3.34,1.47,4.37S199.45,105.74,201.23,105.74z"/>
			<path class="st13" d="M232.71,108.45h-4.4v-2.71h-0.09c-0.68,1.04-1.52,1.82-2.52,2.34s-2.16,0.79-3.46,0.79
				c-2.27,0-3.97-0.61-5.11-1.83c-1.14-1.22-1.71-3.06-1.71-5.52V91.1h4.38v9.96c0,1.55,0.34,2.72,1.01,3.51
				c0.67,0.78,1.68,1.17,3.04,1.17c1.32,0,2.39-0.43,3.22-1.28c0.83-0.85,1.25-1.99,1.25-3.4V91.1h4.4V108.45z"/>
			<path class="st13" d="M251.77,105.76c-0.69,1.04-1.56,1.81-2.62,2.33c-1.06,0.52-2.3,0.78-3.73,0.78c-2.43,0-4.38-0.77-5.85-2.32
				c-1.47-1.54-2.21-3.67-2.21-6.37c0-2.88,0.81-5.18,2.43-6.91s3.77-2.59,6.44-2.59c1.29,0,2.4,0.22,3.33,0.65s1.66,1.09,2.22,1.98
				h0.07v-9.94h4.42v25.07h-4.42v-2.7H251.77z M241.85,100.02c0,1.8,0.45,3.2,1.35,4.21c0.9,1.01,2.11,1.51,3.64,1.51
				c1.51,0,2.74-0.5,3.67-1.5c0.93-1,1.4-2.3,1.4-3.89v-2c0-1.29-0.45-2.37-1.34-3.23c-0.89-0.87-2.04-1.3-3.45-1.3
				c-1.64,0-2.93,0.55-3.86,1.65S241.85,98.09,241.85,100.02z"/>
			<path class="st13" d="M260.38,107.1l1.92-2.78c0.74,0.46,1.53,0.84,2.37,1.12c0.84,0.29,1.77,0.43,2.78,0.43
				c1.08,0,1.93-0.18,2.53-0.53c0.6-0.35,0.91-0.89,0.91-1.6c0-0.57-0.26-1.05-0.77-1.42s-1.36-0.69-2.54-0.94
				c-2.41-0.51-4.1-1.18-5.07-2.02c-0.97-0.84-1.45-1.94-1.45-3.31c0-1.58,0.69-2.86,2.08-3.86c1.39-1,3.17-1.5,5.37-1.5
				c1.08,0,2.12,0.12,3.1,0.37s1.94,0.64,2.86,1.18l-1.74,2.7c-0.83-0.46-1.58-0.79-2.26-0.99s-1.39-0.3-2.12-0.3
				c-1.05,0-1.86,0.18-2.45,0.53c-0.59,0.35-0.88,0.84-0.88,1.47c0,0.63,0.28,1.1,0.84,1.41c0.56,0.31,1.54,0.62,2.93,0.92
				c2.11,0.45,3.65,1.1,4.63,1.95c0.98,0.85,1.47,1.99,1.47,3.42c0,1.67-0.69,3-2.06,4c-1.37,1-3.22,1.5-5.55,1.5
				c-1.27,0-2.48-0.15-3.62-0.45C262.53,108.12,261.43,107.68,260.38,107.1z"/>
		</g>
	</g>
</g>
</svg>
